<svg width="11" height="11" viewBox="0 0 11 11" fill="none" xmlns="http://www.w3.org/2000/svg">
<path d="M4.71382 5.89258H3.44192C3.22516 5.89258 3.04881 6.06892 3.04881 6.28568V6.55758C3.04881 6.62983 2.99003 6.68861 2.91778 6.68861H2.18915C2.11689 6.68861 2.05811 6.62983 2.05811 6.55758V6.28568C2.05811 6.06892 1.88176 5.89258 1.66501 5.89258H0.393104C0.176347 5.89258 0 6.06892 0 6.28568V10.0527C0 10.2695 0.176347 10.4458 0.393104 10.4458H4.71382C4.93058 10.4458 5.10692 10.2695 5.10692 10.0527V6.28568C5.10692 6.06892 4.93058 5.89258 4.71382 5.89258ZM2.92139 8.53371V9.61504H2.18545V8.53377H1.7838L2.5535 7.66585L3.32315 8.53371H2.92139Z" fill="white"/>
<path d="M10.6083 5.89258H9.33645C9.11969 5.89258 8.94334 6.06892 8.94334 6.28568V6.55758C8.94334 6.62983 8.88456 6.68861 8.81231 6.68861H8.08368C8.01142 6.68861 7.95264 6.62983 7.95264 6.55758V6.28568C7.95264 6.06892 7.77629 5.89258 7.55954 5.89258H6.28764C6.07088 5.89258 5.89453 6.06892 5.89453 6.28568V10.0527C5.89453 10.2695 6.07088 10.4458 6.28764 10.4458H10.6083C10.8251 10.4458 11.0015 10.2695 11.0015 10.0527V6.28568C11.0015 6.06892 10.8251 5.89258 10.6083 5.89258ZM8.81592 8.53371V9.61504H8.07998V8.53377H7.67833L8.44803 7.66585L9.21768 8.53371H8.81592Z" fill="white"/>
<path d="M3.33842 5.10791H7.65913C7.87589 5.10791 8.05223 4.93156 8.05223 4.7148V0.947792C8.05223 0.731034 7.87589 0.554688 7.65913 0.554688H6.38723C6.17047 0.554688 5.99412 0.731034 5.99412 0.947792V1.21969C5.99412 1.29194 5.93534 1.35072 5.86309 1.35072H5.13446C5.0622 1.35072 5.00342 1.29194 5.00342 1.21969V0.947792C5.00342 0.731034 4.82708 0.554688 4.61032 0.554688H3.33842C3.12166 0.554688 2.94531 0.731034 2.94531 0.947792V4.7148C2.94531 4.93156 3.12166 5.10791 3.33842 5.10791ZM5.49879 2.32798L6.26843 3.19585H5.86668V4.27717H5.13074V3.1959H4.72909L5.49879 2.32798Z" fill="white"/>
</svg>
