<svg width="10" height="10" viewBox="0 0 10 10" fill="none" xmlns="http://www.w3.org/2000/svg">
<path d="M9.70497 9.84007C9.70497 9.92829 9.63366 9.9996 9.54544 9.9996H0.452495C0.364277 9.9996 0.292969 9.92829 0.292969 9.84007V9.56089C0.292969 9.47267 0.364277 9.40137 0.452495 9.40137H9.54544C9.63366 9.40137 9.70497 9.47267 9.70497 9.56089V9.84007Z" fill="#FDFEFF"/>
<path d="M0.452412 9.40137C0.371383 9.40137 0.307244 9.46279 0.296875 9.54095C0.307244 9.61912 0.371383 9.68052 0.452412 9.68052H9.54536C9.62639 9.68052 9.69053 9.6191 9.7009 9.54095C9.69069 9.46277 9.62641 9.40137 9.54536 9.40137H0.452412Z" fill="white"/>
<path d="M8.58984 3.42325C8.49348 3.42325 8.39587 3.39676 8.30828 3.34125L5.00036 1.24845L1.69246 3.34125C1.44599 3.49711 1.1204 3.42388 0.964697 3.17774C0.808835 2.93127 0.882068 2.60567 1.12838 2.44997L5.00036 0L8.8722 2.44983C9.11851 2.60569 9.19188 2.93129 9.03588 3.17759C8.93569 3.33631 8.76484 3.42293 8.58984 3.42325Z" fill="white"/>
<path d="M1.69139 3.34142L4.99929 1.24862L8.3072 3.34142C8.39477 3.39693 8.49225 3.42342 8.58877 3.42342C8.74495 3.4231 8.8949 3.35084 8.99748 3.22307C8.9619 3.17952 8.92123 3.13963 8.87129 3.10805L4.99929 0.658203L1.12731 3.10803C1.07706 3.13977 1.03558 3.18029 1 3.22432C1.16591 3.43091 1.46199 3.48659 1.69139 3.34142Z" fill="white"/>
<path d="M4.64286 8.75421C4.64286 8.82536 4.58526 8.88326 4.51381 8.88326H2.37905C2.30774 8.88326 2.25 8.82552 2.25 8.75421V6.61928C2.25 6.54814 2.3076 6.49023 2.37905 6.49023H4.51398C4.58528 6.49023 4.64302 6.54797 4.64302 6.61928V8.75421H4.64286Z" fill="white"/>
<path d="M4.64272 6.61914V8.75407C4.64272 8.82521 4.58512 8.88312 4.51367 8.88312H2.37891" fill="white"/>
<path d="M2.25 6.61928C2.25 6.54814 2.3076 6.49023 2.37905 6.49023H4.51398C4.58528 6.49023 4.64302 6.54797 4.64302 6.61928V8.75421C4.64302 8.82536 4.58543 8.88326 4.51398 8.88326" fill="white"/>
<path d="M7.75224 8.75421C7.75224 8.82536 7.69464 8.88326 7.62319 8.88326H5.48842C5.41711 8.88326 5.35938 8.82552 5.35938 8.75421V6.61928C5.35938 6.54814 5.41697 6.49023 5.48842 6.49023H7.62335C7.69466 6.49023 7.7524 6.54797 7.7524 6.61928V8.75421H7.75224Z" fill="white"/>
<path d="M7.75209 6.61914V8.75407C7.75209 8.82521 7.6945 8.88312 7.62305 8.88312H5.48828" fill="white"/>
<path d="M5.35938 6.61928C5.35938 6.54814 5.41697 6.49023 5.48842 6.49023H7.62335C7.69466 6.49023 7.7524 6.54797 7.7524 6.61928V8.75421C7.7524 8.82536 7.6948 8.88326 7.62335 8.88326" fill="white"/>
<path d="M6.19755 5.7503C6.19755 5.82145 6.13995 5.87935 6.0685 5.87935H3.93373C3.86243 5.87935 3.80469 5.82161 3.80469 5.7503V3.61538C3.80469 3.54423 3.86228 3.48633 3.93373 3.48633H6.06866C6.13997 3.48633 6.19771 3.54407 6.19771 3.61538V5.7503H6.19755Z" fill="white"/>
<path d="M6.19741 3.61523V5.75016C6.19741 5.82131 6.13981 5.87921 6.06836 5.87921H3.93359" fill="white"/>
<path d="M3.80469 3.61538C3.80469 3.54423 3.86228 3.48633 3.93373 3.48633H6.06866C6.13997 3.48633 6.19771 3.54407 6.19771 3.61538V5.7503C6.19771 5.82145 6.14011 5.87935 6.06866 5.87935" fill="white"/>
</svg>
